# xmcd
#
# Track frame offsets:
#	150
#	15895
#	31431
#	43395
#	60292
#	72866
#	91474
#	105182
#	125686
#	137241
#
# Disc length: 2035 seconds
#
# Revision: 0
# Processed by: cddbd v1.5.2PL0 Copyright (c) Steve Scherf et al.
# Submitted via: EasyCDDAExtractor 10.1.0.1
#
DISCID=7f07f10a
DTITLE=Bruce Dennis - All Our Days
DYEAR=2007
DGENRE=Country
TTITLE0=In Your Hands
TTITLE1=Steady As She Goes
TTITLE2=Devil's Due
TTITLE3=All Our Days
TTITLE4=No. 44
TTITLE5=Count My Blessings
TTITLE6=Ain't Gonna Run
TTITLE7=Give and Take (the time away)
TTITLE8=Hotter Than High Noon
TTITLE9=Don't Sweat (the small things)
EXTD=
EXTT0=
EXTT1=
EXTT2=
EXTT3=
EXTT4=
EXTT5=
EXTT6=
EXTT7=
EXTT8=
EXTT9=
PLAYORDER=
